<svg id="Layer_1" data-name="Layer 1" xmlns="http://www.w3.org/2000/svg" viewBox="0 0 255.63 255.63"><defs><style>.cls-1{fill:#fff;fill-rule:evenodd;}</style></defs><g id="football"><path class="cls-1" d="M151.83,23.69c-71.91,0-128.17,56.73-128.17,127.82,0,72.52,59.82,127.81,128.17,127.81,43.44,0,99-25.85,120.35-84.73,1.42-3.59,7.12-26.57,7.12-33V141.45C269.33,61,209.51,23.69,151.83,23.69Zm93.28,61.75c-3.56-2.87-7.83-5.74-11.39-8.61-7.83-8.62-15.66-20.11-25.63-26.57C220.9,56.72,238.71,71.8,245.11,85.44ZM175.33,43.8c2.14,0,10,2.15,13.53,4.31,12.82,5,27.77,18.66,37,32.31.71,1.43,2.85,2.87,2.85,5,0,1.44-2.14,17.24-3.56,24.42-17.09,3.59-50.56,8.61-52,8.61-6.41,0-28.49-21.54-30.62-23-1.43-1.44-5.7-3.59-5.7-5.75,0-1.43,7.12-28,11.39-41.64C148.27,48.11,168.92,43.8,175.33,43.8ZM67.1,72.52C75.64,61,88.46,53.85,96.29,48.82c5.7-2.87,16.38-7.18,17.8-7.18a158.61,158.61,0,0,1,24.22,5.75s-5.84,26.79-10,42.36c-13.45,9.35-25.75,18-38.46,25.13-10-3.48-22.78-8.61-33.46-12.92-.71,0-1.4-1-1.43-2.15C54.83,91.91,62.83,78.26,67.1,72.52ZM71.37,206.8c-9.2-1.29-15.75-5.44-22.79-13.65-7.83-16.51-10-28.72-10-44.52,0-2.15,0-9.33,1.42-12.92,2.14-7.18,8.54-25.13,13.53-25.13,1.42,0,14.11,4.57,19.94,7.18C78.94,120.19,85,122,87,127.09c2.61,12.75,5.8,26.81,8.54,40.21L73.51,206.8Zm80.59,57c-15.67,0-38.58-6.77-52.11-14.67,12.11,5.75,26.83,7.16,39.65,7.16,1.42,0,19.46-1.41,21.59-1.41,1.43,0,10,3.59,14.95,4.31A212,212,0,0,1,152,263.83Zm11.27-19.69c-7.12,4.31-16.06,4.67-23.89,4.67-12.11,0-26.67-2.52-38.77-9.7C99.14,238.39,79.92,219,79.92,214c0-6.46,22.07-38.06,23.49-40.21,15,1.43,29.91,2.87,44.86,3.59,10,15.08,31.34,43.08,31.34,45.24C179.61,225.47,163.94,244.14,163.23,244.14Zm25.63-25.85c-1.42,0-33.46-44.52-33.46-46.68,0-1.43,12.81-29.44,19.22-43.8,17.09-2.87,34.89-5,52.7-7.9.71,0,16.51,24.73,18.51,30.88C243.35,162.21,228.49,200.88,223,209,220.9,211.11,198.12,218.29,188.86,218.29ZM264,159.18c0,17.95-16,57.67-34.51,70.59.71-5.74,0-12.2,2.14-16.51,7.83-17.95,14.95-31.59,19.94-48.11,1.42-3.59,1.42-7.9,3.56-10.77,2.84-3.59,6.4-6.46,9.25-10Z" transform="translate(-23.66 -23.69)"/></g></svg>